<svg width="532" height="532" viewBox="0 0 532 532" fill="none" xmlns="http://www.w3.org/2000/svg">
<rect x="5" y="5" width="522" height="522" rx="20" fill="#252525"/>
<rect x="5" y="5" width="522" height="522" rx="20" stroke="#4A4A4A" stroke-width="10"/>
<path d="M144.027 371V368H157.677V164H144.027V161H199.377L241.977 267.95H239.727V164H226.377V161H256.077V164H243.027V371H231.027L157.977 186.05H160.977V368H174.327V371H144.027ZM264.266 371V368H278.366V164H264.266V161H332.366C337.366 161 342.716 161.85 348.416 163.55C354.116 165.25 359.466 168 364.466 171.8C369.566 175.5 373.716 180.45 376.916 186.65C380.116 192.85 381.716 200.4 381.716 209.3C381.716 218.1 380.166 225.6 377.066 231.8C374.066 238 370.266 243.1 365.666 247.1C361.066 251 356.316 254 351.416 256.1C346.616 258.1 342.366 259.3 338.666 259.7C342.366 259.8 346.816 260.7 352.016 262.4C357.316 264 362.516 266.7 367.616 270.5C372.716 274.3 376.966 279.5 380.366 286.1C383.866 292.6 385.616 300.8 385.616 310.7C385.616 325 383.166 336.6 378.266 345.5C373.466 354.3 367.266 360.75 359.666 364.85C352.166 368.95 344.266 371 335.966 371H264.266ZM322.616 368H325.616C327.916 368 330.016 366 331.916 362C333.916 357.9 335.516 351.8 336.716 343.7C338.016 335.5 338.666 325.25 338.666 312.95C338.666 300.45 338.316 290.45 337.616 282.95C336.916 275.35 335.666 269.85 333.866 266.45C332.166 263.05 329.766 261.35 326.666 261.35H322.616V368ZM322.616 258.35H326.666C329.666 258.35 331.916 256.75 333.416 253.55C334.916 250.25 335.866 245 336.266 237.8C336.766 230.6 337.016 221.1 337.016 209.3C337.016 198.2 336.566 189.35 335.666 182.75C334.766 176.15 333.466 171.4 331.766 168.5C330.066 165.5 328.016 164 325.616 164H322.616V258.35Z" fill="white"/>
</svg>
